# xmcd
#
# Track frame offsets:
#	183
#	14045
#	26760
#	38283
#	48258
#	58845
#	71868
#	83720
#	98723
#	109828
#	122378
#	135145
#	145545
#	157365
#	168318
#	181185
#
# Disc length: 2613 seconds
#
# Revision: 1
# Processed by: cddbd v1.5.1PL2 Copyright (c) Steve Scherf et al.
# Submitted via: audiograbber 1.83.01
#
DISCID=cd0a3310
DTITLE=Marc Taynor - Le Violon Cow-Boy
DYEAR=1900
DGENRE=Country
TTITLE0=Hello Bowie
TTITLE1=Masterson's Dance
TTITLE2=Strollin'
TTITLE3=Pretty Monica
TTITLE4=On my old Banjo
TTITLE5=Wooden Leg
TTITLE6=King of the Hill
TTITLE7=Yellow Dog Boogie
TTITLE8=The Lochness Lady
TTITLE9=Green River
TTITLE10=It's Two In The Morning
TTITLE11=Come on, Williams
TTITLE12=Blueberry Hill
TTITLE13=I Got A Tiger by The Rail - San Antonio Rose
TTITLE14=Smoke That Cigarette
TTITLE15=Orange Blossom Special
EXTD=
EXTT0=
EXTT1=
EXTT2=
EXTT3=
EXTT4=
EXTT5=
EXTT6=
EXTT7=
EXTT8=
EXTT9=
EXTT10=
EXTT11=
EXTT12=
EXTT13=
EXTT14=
EXTT15=
PLAYORDER=
